<?xml version="1.0" encoding="UTF-8"?>
<!DOCTYPE svg PUBLIC "-//W3C//DTD SVG 1.1//EN" "http://www.w3.org/Graphics/SVG/1.1/DTD/svg11.dtd">
<svg xmlns="http://www.w3.org/2000/svg" version="1.1" width="512px" height="512px" style="shape-rendering:geometricPrecision; text-rendering:geometricPrecision; image-rendering:optimizeQuality; fill-rule:evenodd; clip-rule:evenodd" xmlns:xlink="http://www.w3.org/1999/xlink">
<g><path style="opacity:0.936" fill="#000000" d="M 234.5,0.5 C 254.75,-1.7501 273.75,2.08324 291.5,12C 310.286,23.1191 325.453,37.9524 337,56.5C 355.909,52.8695 368.742,60.0361 375.5,78C 402.433,79.7526 426.766,88.4193 448.5,104C 475.523,128.405 485.356,158.572 478,194.5C 473.142,216.209 464.975,236.542 453.5,255.5C 455.769,260.537 458.436,265.371 461.5,270C 482.674,270.401 494.341,281.067 496.5,302C 495.73,314.046 490.23,323.213 480,329.5C 481.798,376.094 460.964,407.594 417.5,424C 403.864,428.661 389.864,431.661 375.5,433C 368.742,450.964 355.909,458.131 337,454.5C 323.312,475.186 305.479,491.352 283.5,503C 251.69,515.803 221.69,512.47 193.5,493C 172.916,476.814 156.583,457.148 144.5,434C 138.167,433.333 131.833,433.333 125.5,434C 116.434,449.863 103.1,455.196 85.5,450C 72.4125,443.683 65.4125,433.183 64.5,418.5C 25.7371,397.306 9.57045,364.639 16,320.5C 20.6131,297.279 29.1131,275.612 41.5,255.5C 32.7234,240.611 25.5567,224.944 20,208.5C 10.7374,179.784 13.0707,152.117 27,125.5C 33.289,115.544 41.289,107.211 51,100.5C 50.0967,78.2462 60.5967,65.5795 82.5,62.5C 94.8904,63.4033 104.39,69.07 111,79.5C 122.107,78.0659 133.273,77.2326 144.5,77C 155.076,58.2001 168.076,41.2001 183.5,26C 198.408,13.2128 215.408,4.71283 234.5,0.5 Z M 236.5,17.5 C 260.161,15.4426 280.827,22.2759 298.5,38C 307.116,45.6097 314.616,54.1097 321,63.5C 321.667,64.5 321.667,65.5 321,66.5C 317.19,70.7876 315.023,75.7876 314.5,81.5C 291.445,84.8889 268.945,90.5556 247,98.5C 220.334,88.458 192.834,82.1247 164.5,79.5C 175.691,57.1344 192.024,39.3011 213.5,26C 221.023,22.4408 228.689,19.6074 236.5,17.5 Z M 340.5,72.5 C 354.312,71.8033 360.145,78.1366 358,91.5C 351.569,101.753 343.569,103.087 334,95.5C 328.368,85.568 330.535,77.9014 340.5,72.5 Z M 81.5,79.5 C 94.9597,82.1246 99.1264,89.7913 94,102.5C 86.3333,110.5 78.6667,110.5 71,102.5C 65.9545,90.7724 69.4545,83.1058 81.5,79.5 Z M 123.5,94.5 C 127.5,94.5 131.5,94.5 135.5,94.5C 124.704,121.343 116.537,149.01 111,177.5C 89.2143,195.783 69.7143,216.116 52.5,238.5C 38.0413,215.956 31.208,191.289 32,164.5C 34.2613,144.638 43.2613,128.638 59,116.5C 74.1227,128.235 89.2893,128.401 104.5,117C 110.323,111.036 113.323,103.869 113.5,95.5C 117.042,95.8128 120.375,95.4794 123.5,94.5 Z M 154.5,95.5 C 177.411,96.8822 199.744,101.216 221.5,108.5C 189.844,122.402 160.344,139.736 133,160.5C 137.445,137.998 144.612,116.332 154.5,95.5 Z M 374.5,95.5 C 393.64,96.7136 411.64,101.88 428.5,111C 455.7,128.898 466.867,154.065 462,186.5C 458.682,205.457 452.015,223.123 442,239.5C 425.154,215.983 405.488,194.983 383,176.5C 379.194,154.277 373.361,132.61 365.5,111.5C 367.439,108.385 369.606,105.385 372,102.5C 373.411,100.35 374.245,98.0163 374.5,95.5 Z M 361.5,159.5 C 333.799,139.973 304.465,122.973 273.5,108.5C 287.481,103.305 301.815,100.305 316.5,99.5C 323.674,112.26 334.674,118.593 349.5,118.5C 354.718,131.82 358.718,145.487 361.5,159.5 Z M 244.5,117.5 C 289.755,132.872 330.588,155.872 367,186.5C 371.05,209.313 372.883,232.313 372.5,255.5C 372.883,278.687 371.05,301.687 367,324.5C 331.284,354.286 291.451,377.286 247.5,393.5C 204.149,377.167 164.483,354.667 128.5,326C 127.083,323.017 126.25,319.85 126,316.5C 124.794,306.48 123.628,296.48 122.5,286.5C 141.752,277.652 148.252,262.985 142,242.5C 137.663,234.094 131.163,228.094 122.5,224.5C 123.64,211.41 125.473,198.41 128,185.5C 163.497,157.327 202.33,134.661 244.5,117.5 Z M 105.5,204.5 C 106.693,204.97 107.36,205.97 107.5,207.5C 106.773,213.502 106.106,219.502 105.5,225.5C 87.0635,231.482 79.5635,244.149 83,263.5C 86.3974,275.064 93.8974,282.398 105.5,285.5C 106.498,292.479 106.998,299.479 107,306.5C 89.828,291.452 74.9947,274.452 62.5,255.5C 75.1777,237.171 89.5111,220.171 105.5,204.5 Z M 387.5,204.5 C 404.389,219.712 419.056,236.712 431.5,255.5C 419.056,274.288 404.389,291.288 387.5,306.5C 390.167,272.5 390.167,238.5 387.5,204.5 Z M 316.5,216.5 C 320.167,216.5 323.833,216.5 327.5,216.5C 327.5,253.167 327.5,289.833 327.5,326.5C 323.833,326.5 320.167,326.5 316.5,326.5C 316.5,289.833 316.5,253.167 316.5,216.5 Z M 109.5,241.5 C 124.705,241.861 129.872,249.195 125,263.5C 118.258,270.676 110.925,271.343 103,265.5C 96.6628,254.977 98.8295,246.977 109.5,241.5 Z M 266.5,242.5 C 270.167,242.5 273.833,242.5 277.5,242.5C 277.5,270.5 277.5,298.5 277.5,326.5C 273.833,326.5 270.167,326.5 266.5,326.5C 266.5,298.5 266.5,270.5 266.5,242.5 Z M 216.5,268.5 C 220.5,268.5 224.5,268.5 228.5,268.5C 228.5,287.833 228.5,307.167 228.5,326.5C 224.5,326.5 220.5,326.5 216.5,326.5C 216.5,307.167 216.5,287.833 216.5,268.5 Z M 441.5,271.5 C 443.179,273 444.512,274.833 445.5,277C 434.079,287.949 431.246,300.782 437,315.5C 442.401,325.786 450.901,331.452 462.5,332.5C 463.605,371.262 445.605,396.762 408.5,409C 397.44,412.645 386.107,414.812 374.5,415.5C 374.245,412.984 373.411,410.65 372,408.5C 369.606,405.615 367.439,402.615 365.5,399.5C 373.361,378.39 379.194,356.723 383,334.5C 405.554,316.121 425.054,295.121 441.5,271.5 Z M 51.5,272.5 C 53.0174,272.511 54.1841,273.177 55,274.5C 71.2202,296.39 89.8869,316.056 111,333.5C 116.537,361.99 124.704,389.657 135.5,416.5C 132.833,416.5 130.167,416.5 127.5,416.5C 123.331,397.232 111.331,388.399 91.5,390C 83.1531,391.679 76.3197,395.846 71,402.5C 39.5731,384.941 26.9064,358.274 33,322.5C 36.5108,304.796 42.6775,288.129 51.5,272.5 Z M 461.5,287.5 C 476.705,287.861 481.872,295.195 477,309.5C 470.553,316.452 463.387,317.285 455.5,312C 448.318,301.563 450.318,293.396 461.5,287.5 Z M 166.5,294.5 C 170.5,294.5 174.5,294.5 178.5,294.5C 178.5,305.167 178.5,315.833 178.5,326.5C 174.5,326.5 170.5,326.5 166.5,326.5C 166.5,315.833 166.5,305.167 166.5,294.5 Z M 132.5,350.5 C 160.113,371.062 189.78,388.395 221.5,402.5C 199.745,410.119 177.411,414.119 154.5,414.5C 144.574,394.055 137.241,372.722 132.5,350.5 Z M 361.5,351.5 C 358.718,365.513 354.718,379.18 349.5,392.5C 334.674,392.407 323.674,398.74 316.5,411.5C 301.815,410.695 287.481,407.695 273.5,402.5C 304.465,388.027 333.799,371.027 361.5,351.5 Z M 93.5,406.5 C 103.516,406.35 109.516,411.183 111.5,421C 110,429.167 105.167,434 97,435.5C 83.3054,431.788 79.8054,423.788 86.5,411.5C 88.7243,409.566 91.0576,407.899 93.5,406.5 Z M 341.5,410.5 C 355.268,410.43 360.768,417.096 358,430.5C 352.553,438.815 345.387,440.648 336.5,436C 329.686,429.922 328.853,423.089 334,415.5C 336.426,413.548 338.926,411.881 341.5,410.5 Z M 245.5,412.5 C 267.994,420.207 290.994,425.874 314.5,429.5C 315.023,435.212 317.19,440.212 321,444.5C 321.667,445.5 321.667,446.5 321,447.5C 306.048,470.791 285.214,485.958 258.5,493C 237.773,495.533 219.107,490.533 202.5,478C 186.115,465.315 173.449,449.815 164.5,431.5C 192.518,429.077 219.518,422.744 245.5,412.5 Z"/></g>
<g><path style="opacity:0.927" fill="#000000" d="M 280.5,147.5 C 289.582,148.416 298.582,149.916 307.5,152C 314.924,153.008 317.757,157.175 316,164.5C 313.333,172.5 310.667,180.5 308,188.5C 302.208,195.408 296.874,195.074 292,187.5C 291.719,184.903 291.552,182.57 291.5,180.5C 255.336,201.081 219.336,221.914 183.5,243C 180.162,244.92 176.662,246.42 173,247.5C 164.222,244.779 162.388,239.613 167.5,232C 206.167,209.667 244.833,187.333 283.5,165C 275.914,163.206 273.414,158.706 276,151.5C 277.397,149.93 278.897,148.596 280.5,147.5 Z"/></g>
<g><path style="opacity:0.942" fill="#000000" d="M 303.5,199.5 C 315.505,199.333 327.505,199.5 339.5,200C 341.667,200.833 343.167,202.333 344,204.5C 344.667,249.167 344.667,293.833 344,338.5C 342.891,340.815 341.057,342.315 338.5,343C 327.5,343.667 316.5,343.667 305.5,343C 302.943,342.315 301.109,340.815 300,338.5C 299.333,293.5 299.333,248.5 300,203.5C 301.376,202.295 302.542,200.962 303.5,199.5 Z M 316.5,216.5 C 316.5,253.167 316.5,289.833 316.5,326.5C 320.167,326.5 323.833,326.5 327.5,326.5C 327.5,289.833 327.5,253.167 327.5,216.5C 323.833,216.5 320.167,216.5 316.5,216.5 Z"/></g>
<g><path style="opacity:0.942" fill="#000000" d="M 254.5,225.5 C 266.505,225.333 278.505,225.5 290.5,226C 291.667,227.167 292.833,228.333 294,229.5C 294.667,265.833 294.667,302.167 294,338.5C 293.065,341.102 291.232,342.602 288.5,343C 277.5,343.667 266.5,343.667 255.5,343C 253,341.833 251.167,340 250,337.5C 249.333,301.833 249.333,266.167 250,230.5C 251.025,228.313 252.525,226.646 254.5,225.5 Z M 266.5,242.5 C 266.5,270.5 266.5,298.5 266.5,326.5C 270.167,326.5 273.833,326.5 277.5,326.5C 277.5,298.5 277.5,270.5 277.5,242.5C 273.833,242.5 270.167,242.5 266.5,242.5 Z"/></g>
<g><path style="opacity:0.937" fill="#000000" d="M 204.5,251.5 C 216.171,251.333 227.838,251.5 239.5,252C 242,253.167 243.833,255 245,257.5C 245.667,283.833 245.667,310.167 245,336.5C 244.654,338.848 243.487,340.681 241.5,342C 229.905,343.602 218.238,343.935 206.5,343C 203.427,342.261 201.26,340.428 200,337.5C 199.333,310.833 199.333,284.167 200,257.5C 200.979,255.032 202.479,253.032 204.5,251.5 Z M 216.5,268.5 C 216.5,287.833 216.5,307.167 216.5,326.5C 220.5,326.5 224.5,326.5 228.5,326.5C 228.5,307.167 228.5,287.833 228.5,268.5C 224.5,268.5 220.5,268.5 216.5,268.5 Z"/></g>
<g><path style="opacity:0.935" fill="#000000" d="M 155.5,277.5 C 166.838,277.333 178.172,277.5 189.5,278C 192.333,278.833 194.167,280.667 195,283.5C 195.667,301.5 195.667,319.5 195,337.5C 194.215,339.286 193.049,340.786 191.5,342C 179.93,343.623 168.264,343.957 156.5,343C 154.152,342.654 152.319,341.487 151,339.5C 149.387,321.219 149.053,302.886 150,284.5C 150.938,281.402 152.772,279.069 155.5,277.5 Z M 166.5,294.5 C 166.5,305.167 166.5,315.833 166.5,326.5C 170.5,326.5 174.5,326.5 178.5,326.5C 178.5,315.833 178.5,305.167 178.5,294.5C 174.5,294.5 170.5,294.5 166.5,294.5 Z"/></g>
</svg>
