<?xml version="1.0" encoding="UTF-8"?>
<svg version="1.1" xmlns="http://www.w3.org/2000/svg" width="82" height="44">
<path d="M0 0 C27.06 0 54.12 0 82 0 C82 14.52 82 29.04 82 44 C54.94 44 27.88 44 0 44 C0 29.48 0 14.96 0 0 Z " fill="#03159B" transform="translate(0,0)"/>
<path d="M0 0 C1.65 0 3.3 0 5 0 C5.33 1.65 5.66 3.3 6 5 C9.465 4.505 9.465 4.505 13 4 C13 2.68 13 1.36 13 0 C14.65 0 16.3 0 18 0 C18.84454356 3.37817425 19.10844919 5.67465243 18 9 C16.35 9 14.7 9 13 9 C12.67 8.01 12.34 7.02 12 6 C10.35 6 8.7 6 7 6 C6.67 6.99 6.34 7.98 6 9 C4.02 9 2.04 9 0 9 C0 6.03 0 3.06 0 0 Z " fill="#C2C6E6" transform="translate(39,18)"/>
<path d="M0 0 C4.62 0 9.24 0 14 0 C12.68 0.33 11.36 0.66 10 1 C10 1.99 10 2.98 10 4 C11.32 4.33 12.64 4.66 14 5 C12.68 5 11.36 5 10 5 C10 5.99 10 6.98 10 8 C11.32 8.33 12.64 8.66 14 9 C12.02 9 10.04 9 8 9 C8 6.36 8 3.72 8 1 C7.01 1 6.02 1 5 1 C5 3.64 5 6.28 5 9 C4.34 9 3.68 9 3 9 C3 6.36 3 3.72 3 1 C2.01 0.67 1.02 0.34 0 0 Z " fill="#EEEFF8" transform="translate(14,18)"/>
<path d="M0 0 C1.2065625 0.0309375 1.2065625 0.0309375 2.4375 0.0625 C1.4475 0.7225 0.4575 1.3825 -0.5625 2.0625 C0.4275 2.3925 1.4175 2.7225 2.4375 3.0625 C2.4375 4.7125 2.4375 6.3625 2.4375 8.0625 C0.78135343 8.44468767 -0.88707024 8.77645102 -2.5625 9.0625 C-3.5625 8.0625 -3.5625 8.0625 -3.6875 4.5625 C-3.52762642 0.08603967 -3.52762642 0.08603967 0 0 Z " fill="#EDEEF7" transform="translate(62.5625,17.9375)"/>
<path d="M0 0 C0.99 0 1.98 0 3 0 C3 2.64 3 5.28 3 8 C3.99 8 4.98 8 6 8 C6 5.36 6 2.72 6 0 C6.66 0 7.32 0 8 0 C8.09765625 6.15234375 8.09765625 6.15234375 8 8 C7 9 7 9 4.5625 9.1875 C2 9 2 9 0 7 C-0.125 3.375 -0.125 3.375 0 0 Z " fill="#DCDFF1" transform="translate(29,18)"/>
<path d="M0 0 C1.32 0 2.64 0 4 0 C4 1.98 4 3.96 4 6 C2.68 6.33 1.36 6.66 0 7 C0 4.69 0 2.38 0 0 Z " fill="#747EC8" transform="translate(41,19)"/>
<path d="M0 0 C1.65 0 3.3 0 5 0 C4.01 0.33 3.02 0.66 2 1 C2.185625 1.598125 2.37125 2.19625 2.5625 2.8125 C3 5 3 5 2 8 C2.99 8.33 3.98 8.66 5 9 C3.35 9 1.7 9 0 9 C0 6.03 0 3.06 0 0 Z " fill="#FDFDFE" transform="translate(39,18)"/>
<path d="M0 0 C1.65 0 3.3 0 5 0 C4.34 1.65 3.68 3.3 3 5 C2.01 4.67 1.02 4.34 0 4 C0 2.68 0 1.36 0 0 Z " fill="#848DCE" transform="translate(60,21)"/>
</svg>
